<svg xmlns="http://www.w3.org/2000/svg" width="1706" height="576" viewBox="0 0 451.379 152.4"><defs><path id="prefix__b" d="M174.615 94.276h155.76v34.431h-155.76z"/><path id="prefix__a" d="M167.237 45.088H362.56v22.737H167.237z"/></defs><rect width="451.379" height="152.4" ry="0" opacity=".996" fill="#374f66" paint-order="stroke fill markers"/><g fill="#fff"><path d="M130.171 20.658l-48.417.794-63.265 62.473 51.624 50.764 63.233-66.012zm-15.567 10.907a5.574 5.574 0 01.043 0 5.574 5.574 0 015.574 5.574 5.574 5.574 0 01-5.574 5.574 5.574 5.574 0 01-5.574-5.574 5.574 5.574 0 015.531-5.574zm-22.88 10.464c5.435-.012 10.067 1.887 13.895 5.698 3.828 3.81 5.748 8.434 5.76 13.87.013 5.435-1.887 10.067-5.698 13.895-3.81 3.828-8.434 5.748-13.87 5.76L73.112 94.956c-.359 3.747-1.931 6.89-4.716 9.43-2.786 2.541-6.052 3.816-9.798 3.824-3.525.009-6.613-1.087-9.262-3.285-2.65-2.197-4.345-4.948-5.087-8.252l-19.41-7.72c-1.515-1.53-3.044-3.049-4.557-4.58.012-.135-.007-.277.029-.407.079-.285.211-.559.381-.823a5.6 5.6 0 01.608-.768c.46-.497 1.011-.965 1.528-1.425.516-.46 1-.911 1.326-1.372 2.2-2.223 4.388-4.457 6.584-6.684l20.307 8.12c2.347-1.402 4.843-2.105 7.488-2.111.147 0 .385.017.716.053.33.036.606.054.826.054l12.08-17.546c.062-5.362 1.998-9.938 5.81-13.73 3.81-3.791 8.397-5.693 13.759-5.705zm.014 6.5c-3.599.008-6.681 1.3-9.246 3.877-2.565 2.577-3.844 5.665-3.836 9.264.01 3.599 1.3 6.681 3.877 9.246 2.577 2.565 5.665 3.843 9.264 3.835 3.673-.008 6.791-1.3 9.356-3.877 2.565-2.576 3.844-5.664 3.836-9.263-.01-3.6-1.3-6.682-3.877-9.247-2.577-2.565-5.701-3.843-9.374-3.835zm.116 2.534c2.864-.006 5.327 1.016 7.389 3.068 2.06 2.052 3.094 4.511 3.101 7.376.008 2.938-1.016 5.437-3.068 7.498s-4.51 3.095-7.375 3.102c-2.938.007-5.42-1.016-7.444-3.068s-3.04-4.547-3.046-7.485c-.008-2.865.997-5.328 3.013-7.39 2.015-2.06 4.492-3.094 7.43-3.101zM58.542 82.869c-1.029.002-1.8.077-2.314.226l4.411 1.752c2.206.877 3.788 2.416 4.748 4.618.517 1.1.777 2.201.779 3.303.002 1.028-.216 2.094-.654 3.197-.876 2.279-2.415 3.861-4.617 4.748-1.1.443-2.202.666-3.304.668-1.028.003-2.094-.216-3.197-.654a194.13 194.13 0 01-2.701-1.04 193.648 193.648 0 00-2.702-1.041c2.139 3.815 5.338 5.717 9.598 5.708 2.938-.008 5.47-1.06 7.595-3.157 2.126-2.098 3.186-4.653 3.179-7.665-.008-2.938-1.06-5.451-3.157-7.54-2.098-2.088-4.653-3.13-7.664-3.123z"/><path d="M126.452 16.689c-14.668.553-35.694.186-42.966.78-3.778.309-4.58 1.604-6.408 3.163-3.541 3.391-6.422 6.506-9.588 9.663-12.956 13.192-25.971 26.329-38.91 39.536-3.417 3.486-6.932 6.877-10.25 10.457-.64.691-.92 1.645-1.063 2.577-.14.919-.087 1.501.006 2.005.082.444.189.889.365 1.309.684 1.821 2.121 3.024 3.544 4.507 14.976 14.492 29.762 29.179 44.86 43.545.284.277.577.548.936.727 1.395.794 3.11.969 4.644.512 1.87-.527 3.386-1.842 4.698-3.251 19.328-20.76 40.17-41.353 56.767-59.215 1.552-1.675 2.016-4.154 2.02-6.415.007-3.855.016-7.188-.145-10.629-.204-11.332.167-21.237-.455-32.553-.113-2.061-.545-3.957-1.918-5.187-1.57-1.407-4.383-1.597-6.137-1.531zm1.95 5.34c.485.145.831.587.918 1.079.215.98.08 1.99.044 2.982-.042.68-.025 1.363.05 2.04.086 13.183.525 26.362.39 39.546-.263 1.517-1.217 2.8-2.267 3.879-1.468 1.513-3.157 2.814-4.462 4.483-.754.826-1.55 1.613-2.32 2.425-16.69 17.295-33.285 34.68-50.052 51.9-.45.246-1.02.178-1.428-.123-.898-.572-1.53-1.451-2.258-2.21-.427-.466-.889-.9-1.382-1.295-14.243-13.925-28.587-27.747-42.762-41.742-.212-.195-.45-.396-.483-.702-.113-.462.112-.911.384-1.27 3.823-3.828 7.886-7.975 11.354-11.501 1.576-1.617 3.192-3.242 4.784-4.863C53.016 52.336 67.1 37.993 81.309 23.774c1.133-.944 2.656-1.258 4.1-1.237 14.325-.158 28.649-.443 42.975-.513z"/></g><text transform="matrix(1.525 0 0 1.525 -93.26 -28.782)" font-weight="700" font-size="19.756" font-family="Lato" fill="#fff"><tspan x="167.236" y="63.461"><tspan style="-inkscape-font-specification:'Lato Bold'">Steam Price Tracker</tspan></tspan></text><text transform="matrix(1.16181 0 0 1.16181 -40.906 -23.779)" font-weight="700" font-size="16.933" font-family="Lato" fill="#fff"><tspan x="174.615" y="110.023"><tspan style="-inkscape-font-specification:'Lato Bold'">Stream Deck Plugin</tspan></tspan></text></svg>